<svg width="119" height="132" viewBox="0 0 119 132" fill="none" xmlns="http://www.w3.org/2000/svg">
<path fill-rule="evenodd" clip-rule="evenodd" d="M0.837891 4.3254C0.837891 1.93102 2.77892 -0.0100098 5.1733 -0.0100098H114.319C116.714 -0.0100098 118.655 1.93102 118.655 4.3254V127.442C118.655 129.836 116.714 131.777 114.319 131.777H65.0808L65.8831 131.491C66.7871 131.168 67.0417 130.01 66.3568 129.338L37.4783 100.981C36.6555 100.174 35.2664 100.756 35.2664 101.91V112.313H0.837891V4.3254ZM37.0017 34.249C35.8045 34.249 34.834 35.2195 34.834 36.4167V76.5676C34.834 77.7648 35.8045 78.7353 37.0017 78.7353H82.4909C83.6881 78.7353 84.6586 77.7648 84.6586 76.5676V36.4167C84.6586 35.2195 83.6881 34.249 82.4909 34.249H37.0017Z" fill="white"/>
</svg>
